<svg width="300" height="300" viewBox="0 0 300 300" fill="none" xmlns="http://www.w3.org/2000/svg">
<rect width="300" height="300" rx="25" fill="white"/>
<path d="M116.939 148.6C124.406 149.933 130.739 153.867 135.939 160.4C141.139 166.933 143.739 174.333 143.739 182.6C143.739 189.667 141.872 196.067 138.139 201.8C134.539 207.4 129.272 211.867 122.339 215.2C115.406 218.4 107.339 220 98.1391 220H42.5391V81H95.5391C105.006 81 113.139 82.6 119.939 85.8C126.739 89 131.872 93.3333 135.339 98.8C138.806 104.133 140.539 110.133 140.539 116.8C140.539 124.8 138.406 131.467 134.139 136.8C129.872 142.133 124.139 146.067 116.939 148.6ZM65.3391 139.4H93.5391C101.006 139.4 106.806 137.733 110.939 134.4C115.206 130.933 117.339 126 117.339 119.6C117.339 113.333 115.206 108.467 110.939 105C106.806 101.4 101.006 99.6 93.5391 99.6H65.3391V139.4ZM96.1391 201.4C103.872 201.4 109.939 199.533 114.339 195.8C118.739 192.067 120.939 186.867 120.939 180.2C120.939 173.4 118.606 168 113.939 164C109.272 160 103.072 158 95.3391 158H65.3391V201.4H96.1391Z" fill="#3F72AF"/>
<path d="M265.716 122.4C265.716 129.467 264.049 136.133 260.716 142.4C257.382 148.667 252.049 153.8 244.716 157.8C237.382 161.667 227.982 163.6 216.516 163.6H191.316V220H168.516V81H216.516C227.182 81 236.182 82.8667 243.516 86.6C250.982 90.2 256.516 95.1333 260.116 101.4C263.849 107.667 265.716 114.667 265.716 122.4ZM216.516 145C225.182 145 231.649 143.067 235.916 139.2C240.182 135.2 242.316 129.6 242.316 122.4C242.316 107.2 233.716 99.6 216.516 99.6H191.316V145H216.516Z" fill="#59ABDF"/>
</svg>
